<svg width="118" height="21" viewBox="0 0 118 21" fill="none" xmlns="http://www.w3.org/2000/svg">
<path d="M114.698 5.66892C116.361 7.2747 117.346 8.96159 117.654 10.7296C117.751 11.2811 117.8 11.8528 117.8 12.4449C117.8 14.9265 116.835 16.9986 114.905 18.6612L112.204 20.9969L110.744 20.1818V5.71758C110.744 3.80361 111.47 2.22215 112.922 0.973205C113.36 0.600143 113.834 0.275741 114.345 0L115.379 1.80043C114.179 2.43301 113.392 3.31701 113.019 4.45241C112.889 4.84169 112.825 5.26342 112.825 5.71758V7.20171L114.698 5.66892ZM112.812 9.90236V17.7853L113.567 17.1162C115.01 15.8511 115.732 14.2696 115.732 12.3719C115.732 11.0743 115.241 9.8537 114.26 8.71018L112.812 9.90236Z" fill="#1E1E1F" style="fill:#1E1E1F;fill:color(display-p3 0.1176 0.1176 0.1216);fill-opacity:1;"/>
<path d="M99.3573 7.29866L100.598 5.65637C101.888 6.65391 102.654 7.66766 102.897 8.69764C102.978 9.03015 103.015 9.41132 103.007 9.84115C103.007 10.2629 102.987 10.7008 102.946 11.155C102.914 11.601 102.877 12.043 102.837 12.481C102.723 13.7218 102.666 14.6342 102.666 15.2181C102.666 16.24 102.974 17.2051 103.591 18.1134L105.756 16.4346V6.04565H107.824V16.4833C107.824 17.1077 107.946 17.6349 108.189 18.0647C108.432 18.4946 108.838 18.9082 109.406 19.3056L108.226 20.9965C107.212 20.3558 106.514 19.6097 106.133 18.7581L103.262 20.9965C102.038 19.6259 101.219 18.235 100.805 16.8239C100.659 16.3211 100.586 15.8183 100.586 15.3154C100.586 14.6342 100.627 13.8921 100.708 13.0892C100.862 11.5645 100.939 10.4251 100.939 9.67084C100.939 8.91661 100.412 8.12588 99.3573 7.29866Z" fill="#1E1E1F" style="fill:#1E1E1F;fill:color(display-p3 0.1176 0.1176 0.1216);fill-opacity:1;"/>
<path d="M100.586 1.84909C99.7344 2.30325 99.1545 2.72497 98.8464 3.11425C98.2868 3.83605 98.007 4.6876 98.007 5.66892V20.6319H95.9268V5.66892C95.9268 3.70629 96.6648 2.13294 98.1408 0.948875C98.5787 0.592033 99.0532 0.275741 99.5641 0L100.586 1.84909Z" fill="#1E1E1F" style="fill:#1E1E1F;fill:color(display-p3 0.1176 0.1176 0.1216);fill-opacity:1;"/>
<path d="M90.6343 6.79132C89.8882 6.79132 89.284 6.48719 88.8217 5.87894C88.7163 6.68183 88.2256 7.44012 87.3498 8.15381C86.9767 8.46199 86.5793 8.75395 86.1576 9.02969C85.7521 9.29732 85.3709 9.57712 85.0141 9.86908C84.2031 10.5422 83.7935 11.2478 83.7854 11.9858C83.7854 12.8049 84.2882 13.3726 85.2939 13.6889C85.6588 13.8024 86.1089 13.8592 86.6442 13.8592V15.9759C84.9248 15.9759 83.6272 15.5461 82.7514 14.6864C82.0214 13.9728 81.6565 13.0725 81.6565 11.9858C81.6565 10.6558 82.1999 9.50818 83.2866 8.54309C83.5948 8.26735 83.9111 8.00783 84.2355 7.76452L85.1844 7.08328C86.2711 6.32905 86.8185 5.61131 86.8267 4.93007V3.81088C86.6158 3.77033 86.3847 3.74195 86.1332 3.72573L85.4885 3.7014C83.8584 3.75006 82.4351 4.45563 81.2186 5.81812C80.3994 6.72644 79.8196 7.86185 79.479 9.22433C79.3086 9.90558 79.2235 10.7166 79.2235 11.6573C79.2235 12.59 79.3695 13.4943 79.6614 14.3702C79.9453 15.2379 80.3629 15.98 80.9144 16.5964C82.0579 17.8615 83.6718 18.4982 85.7561 18.5063C87.8891 18.5144 89.6773 17.6344 91.1209 15.8665C91.6481 15.2258 92.0333 14.5932 92.2766 13.9687L94.2473 14.7473C93.704 16.1098 92.7997 17.3506 91.5345 18.4698C89.8963 19.9134 87.9702 20.6352 85.7561 20.6352C82.8446 20.6352 80.6306 19.7268 79.114 17.9102C77.7677 16.2882 77.0946 14.1228 77.0946 11.414C77.0946 8.45388 77.9543 6.04925 79.6736 4.20016C81.3037 2.44839 83.242 1.57251 85.4885 1.57251C86.4374 1.57251 87.3416 1.73877 88.2013 2.07128C88.5095 2.19293 88.7731 2.34296 88.992 2.52138C89.3489 3.94875 89.8882 4.66243 90.61 4.66243C91.3399 4.66243 91.863 3.93659 92.1793 2.48489L94.2595 2.88634C93.8216 4.90574 92.9862 6.14252 91.7535 6.59668C91.3804 6.72644 91.0074 6.79132 90.6343 6.79132Z" fill="#1E1E1F" style="fill:#1E1E1F;fill:color(display-p3 0.1176 0.1176 0.1216);fill-opacity:1;"/>
<path d="M66.8989 21C64.5956 20.3349 63.444 18.9562 63.444 16.8639V11.5234C63.4359 10.607 63.5454 9.91355 63.7725 9.44317C64.1455 8.64027 64.6849 7.99147 65.3904 7.49676L67.9938 5.672L70.4511 10.3312L65.5121 14.0537V16.8639C65.5121 17.7073 65.8405 18.3074 66.4975 18.6643L68.967 16.7422L70.1835 18.4453L66.8989 21ZM66.5826 9.1877C65.8851 9.70674 65.5283 10.4691 65.5121 11.4747L67.8478 9.74729C67.5477 9.21203 67.3571 8.85924 67.276 8.68893L66.5826 9.1877Z" fill="#1E1E1F" style="fill:#1E1E1F;fill:color(display-p3 0.1176 0.1176 0.1216);fill-opacity:1;"/>
<path d="M55.1106 8.93223C55.1025 8.62405 55.0336 8.38075 54.9038 8.20233C54.7173 7.95092 54.3888 7.62246 53.9185 7.21696L55.3174 5.672C56.0392 6.31269 56.5015 6.77902 56.7043 7.07098C57.0205 7.54947 57.1787 8.04824 57.1787 8.56728V17.7154L59.0035 16.2434C59.6036 15.7649 59.9037 14.9904 59.9037 13.9199V10.9273C59.9118 10.1731 59.6401 9.44722 59.0886 8.74976C58.9264 8.5389 58.7439 8.32398 58.5412 8.10501L57.6775 7.14397L59.1616 5.672L60.0132 6.60871C60.6457 7.29806 61.0756 7.85765 61.3026 8.28748C61.7487 9.11471 61.9717 9.98248 61.9717 10.8908V13.9199C61.9717 15.623 61.4243 16.9287 60.3294 17.8371L56.5096 21L55.1106 20.0876V8.93223Z" fill="#1E1E1F" style="fill:#1E1E1F;fill:color(display-p3 0.1176 0.1176 0.1216);fill-opacity:1;"/>
<path d="M52.1052 5.99517V16.4814C52.1052 17.1059 52.2268 17.6331 52.4701 18.0629C52.7134 18.4927 53.1189 18.9063 53.6866 19.3037L52.5066 20.9947C51.1847 20.1593 50.4021 19.1618 50.1588 18.0021C50.0777 17.6128 50.0371 17.1951 50.0371 16.7491V5.99517H52.1052ZM52.093 5.13145L50.1709 4.4867L51.6186 1.05615L53.7718 1.91987L52.093 5.13145Z" fill="#1E1E1F" style="fill:#1E1E1F;fill:color(display-p3 0.1176 0.1176 0.1216);fill-opacity:1;"/>
<path d="M44.1853 9.07735C43.8204 9.07735 43.3216 9.32876 42.689 9.83158L42.3971 10.0749L41.3265 8.42044L42.0078 7.93383C42.8593 7.31747 43.6501 7.00929 44.38 7.00929L45.4627 3.26245L47.4577 3.79771L46.5332 7.00929H48.7107V9.07735H46.2412V13.5906C46.2412 14.5151 46.2412 15.387 46.2412 16.2061C46.2493 17.0171 46.375 17.6375 46.6183 18.0673C46.8616 18.4972 47.2671 18.9108 47.8348 19.3082L46.6548 20.9991C45.3329 20.1638 44.5503 19.1662 44.307 18.0065C44.2259 17.6172 44.1853 17.1996 44.1853 16.7535V9.07735Z" fill="#1E1E1F" style="fill:#1E1E1F;fill:color(display-p3 0.1176 0.1176 0.1216);fill-opacity:1;"/>
<path d="M35.4988 18.0317C35.4988 18.348 35.6286 18.5791 35.8881 18.7251L38.2482 16.9612V8.83491L36.545 10.1609C35.8476 10.7043 35.4988 11.4423 35.4988 12.3749V18.0317ZM40.7177 21C39.8499 20.4647 39.2173 19.8524 38.8199 19.163L36.3626 21C35.0569 20.7648 34.1647 20.1727 33.6863 19.2239C33.5159 18.8833 33.4308 18.4859 33.4308 18.0317V12.3749C33.4308 10.7367 34.0269 9.47155 35.2191 8.57945L39.0632 5.672L40.3162 6.31675V16.4867C40.3162 17.1112 40.4379 17.6384 40.6812 18.0682C40.9245 18.498 41.33 18.9116 41.8977 19.309L40.7177 21Z" fill="#1E1E1F" style="fill:#1E1E1F;fill:color(display-p3 0.1176 0.1176 0.1216);fill-opacity:1;"/>
<path d="M28.8806 21C26.5773 20.3349 25.4257 18.9562 25.4257 16.8639V11.5234C25.4176 10.607 25.5271 9.91355 25.7542 9.44317C26.1272 8.64027 26.6665 7.99147 27.3721 7.49676L29.9754 5.672L32.4328 10.3312L27.4938 14.0537V16.8639C27.4938 17.7073 27.8222 18.3074 28.4791 18.6643L30.9486 16.7422L32.1652 18.4453L28.8806 21ZM28.5643 9.1877C27.8668 9.70674 27.51 10.4691 27.4938 11.4747L29.8295 9.74729C29.5294 9.21203 29.3388 8.85924 29.2577 8.68893L28.5643 9.1877Z" fill="#1E1E1F" style="fill:#1E1E1F;fill:color(display-p3 0.1176 0.1176 0.1216);fill-opacity:1;"/>
<path d="M18.6256 5.672C19.4853 6.19915 20.0733 6.74252 20.3895 7.30212L22.4576 5.672C23.5281 6.68575 24.3716 8.02796 24.9879 9.69863L23.151 10.757C22.8834 10.0352 22.5549 9.42289 22.1656 8.92007L20.8883 9.92977V20.635H18.8203V9.26069C18.8203 8.62 18.3783 8.00363 17.4943 7.4116L18.6256 5.672Z" fill="#1E1E1F" style="fill:#1E1E1F;fill:color(display-p3 0.1176 0.1176 0.1216);fill-opacity:1;"/>
<path d="M13.5397 6.79132C12.7936 6.79132 12.1894 6.48719 11.7271 5.87894C11.6217 6.68183 11.131 7.44012 10.2551 8.15381C9.88208 8.46199 9.48469 8.75395 9.06297 9.02969C8.65747 9.29732 8.27629 9.57712 7.91945 9.86908C7.10845 10.5422 6.69889 11.2478 6.69078 11.9858C6.69078 12.8049 7.1936 13.3726 8.19925 13.6889C8.5642 13.8024 9.01431 13.8592 9.54957 13.8592V15.9759C7.83024 15.9759 6.53264 15.5461 5.65675 14.6864C4.92685 13.9728 4.5619 13.0725 4.5619 11.9858C4.5619 10.6558 5.10527 9.50818 6.19201 8.54309C6.5002 8.26735 6.81649 8.00783 7.14089 7.76452L8.08976 7.08328C9.17651 6.32905 9.72394 5.61131 9.73205 4.93007V3.81088C9.52119 3.77033 9.29005 3.74195 9.03864 3.72573L8.39389 3.7014C6.76377 3.75006 5.34046 4.45563 4.12395 5.81812C3.30484 6.72644 2.72497 7.86185 2.38435 9.22433C2.21404 9.90558 2.12889 10.7166 2.12889 11.6573C2.12889 12.59 2.27487 13.4943 2.56683 14.3702C2.85068 15.2379 3.26835 15.98 3.81983 16.5964C4.96334 17.8615 6.57724 18.4982 8.66152 18.5063C10.7945 18.5144 12.5827 17.6344 14.0263 15.8665C14.5535 15.2258 14.9387 14.5932 15.182 13.9687L17.1527 14.7473C16.6094 16.1098 15.7051 17.3506 14.4399 18.4698C12.8017 19.9134 10.8756 20.6352 8.66152 20.6352C5.75002 20.6352 3.53598 19.7268 2.0194 17.9102C0.673133 16.2882 0 14.1228 0 11.414C0 8.45388 0.859664 6.04925 2.57899 4.20016C4.20911 2.44839 6.14741 1.57251 8.39389 1.57251C9.34276 1.57251 10.247 1.73877 11.1067 2.07128C11.4149 2.19293 11.6785 2.34296 11.8974 2.52138C12.2543 3.94875 12.7936 4.66243 13.5154 4.66243C14.2453 4.66243 14.7684 3.93659 15.0847 2.48489L17.1649 2.88634C16.727 4.90574 15.8916 6.14252 14.6589 6.59668C14.2858 6.72644 13.9128 6.79132 13.5397 6.79132Z" fill="#1E1E1F" style="fill:#1E1E1F;fill:color(display-p3 0.1176 0.1176 0.1216);fill-opacity:1;"/>
</svg>
